<?xml version="1.0" encoding="UTF-8"?>
<!DOCTYPE svg PUBLIC "-//W3C//DTD SVG 1.1//EN" "http://www.w3.org/Graphics/SVG/1.1/DTD/svg11.dtd">
<svg xmlns="http://www.w3.org/2000/svg" version="1.1" width="1080px" height="1080px" style="shape-rendering:geometricPrecision; text-rendering:geometricPrecision; image-rendering:optimizeQuality; fill-rule:evenodd; clip-rule:evenodd" xmlns:xlink="http://www.w3.org/1999/xlink">
<g><path style="opacity:0.999" fill="#7d0def" d="M 188.5,432.5 C 186.901,433.562 185.234,433.562 183.5,432.5C 176.692,429.339 169.526,427.339 162,426.5C 157.923,426.914 154.09,428.081 150.5,430C 147.226,435.369 148.226,439.702 153.5,443C 163.441,445.726 173.107,448.893 182.5,452.5C 184.181,454.008 186.181,455.008 188.5,455.5C 192.167,457.167 194.833,459.833 196.5,463.5C 196.992,465.819 197.992,467.819 199.5,469.5C 201.444,476.25 201.944,483.25 201,490.5C 200.61,493.104 199.776,495.438 198.5,497.5C 196.992,499.181 195.992,501.181 195.5,503.5C 195.5,504.167 195.167,504.5 194.5,504.5C 191.833,506.5 189.5,508.833 187.5,511.5C 183.162,514.901 178.162,517.068 172.5,518C 153.428,521.366 135.428,518.366 118.5,509C 117.919,508.107 117.585,507.107 117.5,506C 120.424,497.985 124.257,490.485 129,483.5C 139.862,491.563 152.029,494.73 165.5,493C 172.181,490.472 174.014,485.972 171,479.5C 169.745,478.789 168.579,477.956 167.5,477C 158.228,473.798 148.895,470.798 139.5,468C 122.462,459.743 116.295,446.243 121,427.5C 126.055,412.459 136.555,403.959 152.5,402C 167.503,400.334 181.837,402.667 195.5,409C 196.728,409.779 197.728,410.779 198.5,412C 195.256,418.986 191.923,425.819 188.5,432.5 Z"/></g>
<g><path style="opacity:0.36" fill="#751dcd" d="M 898.5,404.5 C 888.111,403.859 878.111,404.526 868.5,406.5C 867.596,405.791 867.263,404.791 867.5,403.5C 878.014,403.172 888.347,403.506 898.5,404.5 Z"/></g>
<g><path style="opacity:0.998" fill="#7f09f3" d="M 232.5,403.5 C 240.971,404.475 249.305,404.809 257.5,404.5C 258.5,441.494 258.833,478.494 258.5,515.5C 249.5,515.5 240.5,515.5 231.5,515.5C 231.173,478.094 231.507,440.761 232.5,403.5 Z"/></g>
<g><path style="opacity:0.999" fill="#7e0cf2" d="M 307.5,403.5 C 313.093,403.193 318.593,403.527 324,404.5C 335.754,425.674 347.254,447.007 358.5,468.5C 369.922,447.324 381.088,425.991 392,404.5C 397.75,403.359 403.584,403.193 409.5,404C 415.642,441.355 420.975,478.855 425.5,516.5C 415.833,516.5 406.167,516.5 396.5,516.5C 394.744,499.455 392.578,482.455 390,465.5C 381.333,482.167 372.667,498.833 364,515.5C 359.921,516.629 355.755,516.796 351.5,516C 342.269,499.037 333.435,481.87 325,464.5C 322.089,481.457 319.422,498.457 317,515.5C 307.583,516.485 298.083,516.818 288.5,516.5C 294.372,478.725 300.705,441.058 307.5,403.5 Z"/></g>
<g><path style="opacity:0.998" fill="#7f0af5" d="M 506.5,487.5 C 498.757,486.87 491.424,487.537 484.5,489.5C 484.5,498.167 484.5,506.833 484.5,515.5C 475.5,515.5 466.5,515.5 457.5,515.5C 457.5,478.5 457.5,441.5 457.5,404.5C 476.696,403.087 496.03,403.254 515.5,405C 540.418,413.642 550.252,431.142 545,457.5C 539.908,477.425 527.074,487.425 506.5,487.5 Z M 503.5,429.5 C 514.686,432.915 518.852,440.249 516,451.5C 514.098,456.4 510.598,459.567 505.5,461C 501.389,461.941 497.222,462.441 493,462.5C 490.05,462.432 487.383,461.766 485,460.5C 484.5,450.506 484.334,440.506 484.5,430.5C 490.744,429.542 497.077,429.209 503.5,429.5 Z"/></g>
<g><path style="opacity:0.998" fill="#800ff4" d="M 576.5,403.5 C 585.404,404.481 594.237,404.815 603,404.5C 603.333,433.167 603.667,461.833 604,490.5C 619.759,491.325 635.593,491.825 651.5,492C 651.508,500.342 651.508,508.508 651.5,516.5C 626.167,516.5 600.833,516.5 575.5,516.5C 575.173,478.761 575.507,441.094 576.5,403.5 Z"/></g>
<g><path style="opacity:0.999" fill="#7f0ff2" d="M 676.5,403.5 C 702.167,403.5 727.833,403.5 753.5,403.5C 753.782,411.568 753.782,419.568 753.5,427.5C 736.847,428.499 720.18,428.833 703.5,428.5C 703.19,434.758 703.524,440.924 704.5,447C 719.496,447.5 734.496,447.667 749.5,447.5C 749.816,455.752 749.482,463.919 748.5,472C 733.504,472.5 718.504,472.667 703.5,472.5C 703.666,478.509 703.499,484.509 703,490.5C 694.916,497.083 686.416,503.083 677.5,508.5C 676.914,508.291 676.414,507.957 676,507.5C 675.734,472.429 675.9,437.762 676.5,403.5 Z"/></g>
<g><path style="opacity:0.98" fill="#7f06f5" d="M 781.5,403.5 C 806.833,403.5 832.167,403.5 857.5,403.5C 857.816,411.752 857.482,419.919 856.5,428C 840.837,428.5 825.17,428.667 809.5,428.5C 809.187,435.755 809.52,442.921 810.5,450C 824.496,450.5 838.496,450.667 852.5,450.5C 852.5,458.833 852.5,467.167 852.5,475.5C 838.167,475.5 823.833,475.5 809.5,475.5C 809.667,488.837 809.5,502.171 809,515.5C 800,516.833 791,516.833 782,515.5C 781.5,478.168 781.333,440.835 781.5,403.5 Z"/></g>
<g><path style="opacity:0.971" fill="#7f06f5" d="M 868.5,406.5 C 878.111,404.526 888.111,403.859 898.5,404.5C 905.559,417.616 912.392,430.949 919,444.5C 926.88,431.242 934.38,417.742 941.5,404C 951.5,403.333 961.5,403.333 971.5,404C 972.022,404.561 972.355,405.228 972.5,406C 959.214,428.736 946.047,451.569 933,474.5C 932.5,488.496 932.333,502.496 932.5,516.5C 923.105,516.403 913.938,516.07 905,515.5C 904.667,500.833 904.333,486.167 904,471.5C 891.661,450.158 879.827,428.492 868.5,406.5 Z"/></g>
<g><path style="opacity:0.2" fill="#7742b5" d="M 503.5,429.5 C 497.077,429.209 490.744,429.542 484.5,430.5C 487.258,429.182 490.424,428.515 494,428.5C 497.352,428.502 500.518,428.835 503.5,429.5 Z"/></g>
<g><path style="opacity:0.475" fill="#562d85" d="M 183.5,432.5 C 185.234,433.562 186.901,433.562 188.5,432.5C 186.962,435.048 185.296,435.048 183.5,432.5 Z"/></g>
<g><path style="opacity:0.02" fill="#5a2398" d="M 182.5,452.5 C 185.089,452.461 187.089,453.461 188.5,455.5C 186.181,455.008 184.181,454.008 182.5,452.5 Z"/></g>
<g><path style="opacity:0.737" fill="#5a2396" d="M 196.5,463.5 C 198.539,464.911 199.539,466.911 199.5,469.5C 197.992,467.819 196.992,465.819 196.5,463.5 Z"/></g>
<g><path style="opacity:0.496" fill="#7330bc" d="M 457.5,404.5 C 457.5,441.5 457.5,478.5 457.5,515.5C 466.5,515.5 475.5,515.5 484.5,515.5C 475.348,516.494 466.015,516.827 456.5,516.5C 456.168,478.996 456.502,441.663 457.5,404.5 Z"/></g>
<g><path style="opacity:0.435" fill="#7431ba" d="M 506.5,487.5 C 499.266,488.198 491.933,488.864 484.5,489.5C 491.424,487.537 498.757,486.87 506.5,487.5 Z"/></g>
<g><path style="opacity:0.998" fill="#7f09f3" d="M 497.5,641.5 C 501.439,647.108 506.106,652.108 511.5,656.5C 512.75,656.577 513.583,657.244 514,658.5C 518.369,653.963 522.869,649.63 527.5,645.5C 534.11,640.559 540.11,634.892 545.5,628.5C 548.833,624.5 552.5,620.833 556.5,617.5C 560.1,615.57 563.1,612.903 565.5,609.5C 566.833,607.5 568.5,605.833 570.5,604.5C 574.436,602.234 577.769,599.234 580.5,595.5C 581.167,594.167 582.167,593.167 583.5,592.5C 586.427,591.243 588.761,589.243 590.5,586.5C 594.492,581.51 599.159,577.177 604.5,573.5C 606.749,572.92 608.415,571.587 609.5,569.5C 617.091,562.367 625.091,555.701 633.5,549.5C 635.749,548.92 637.415,547.587 638.5,545.5C 661.031,527.48 684.031,509.98 707.5,493C 723.163,492.5 738.83,492.333 754.5,492.5C 754.5,500.5 754.5,508.5 754.5,516.5C 735.83,516.333 717.164,516.5 698.5,517C 648.857,568.636 600.691,621.469 554,675.5C 542.287,690.425 530.454,705.258 518.5,720C 516.711,720.52 515.044,720.187 513.5,719C 489.333,694.167 465.167,669.333 441,644.5C 440.143,641.449 440.81,638.783 443,636.5C 449.714,628.788 456.047,620.788 462,612.5C 464.459,609.9 466.959,609.9 469.5,612.5C 478.855,622.187 488.188,631.854 497.5,641.5 Z"/></g>
<g><path style="opacity:0.231" fill="#532686" d="M 198.5,497.5 C 198.539,500.089 197.539,502.089 195.5,503.5C 195.992,501.181 196.992,499.181 198.5,497.5 Z"/></g>
<g><path style="opacity:0.075" fill="#581c99" d="M 194.5,504.5 C 193.167,507.833 190.833,510.167 187.5,511.5C 189.5,508.833 191.833,506.5 194.5,504.5 Z"/></g>
<g><path style="opacity:0.529" fill="#6529a5" d="M 638.5,545.5 C 637.415,547.587 635.749,548.92 633.5,549.5C 634.585,547.413 636.251,546.08 638.5,545.5 Z"/></g>
<g><path style="opacity:0.518" fill="#5f3097" d="M 609.5,569.5 C 608.415,571.587 606.749,572.92 604.5,573.5C 605.585,571.413 607.251,570.08 609.5,569.5 Z"/></g>
<g><path style="opacity:0.888" fill="#7f06f4" d="M 819.5,587.5 C 830.702,586.422 841.369,588.256 851.5,593C 854.399,596.233 853.899,598.733 850,600.5C 838.314,594.191 826.147,593.024 813.5,597C 803.171,604.298 801.837,612.964 809.5,623C 819.679,628.173 830.346,632.173 841.5,635C 856.16,642.285 860.66,653.785 855,669.5C 851.877,675.646 847.044,679.812 840.5,682C 825.422,686.156 811.089,684.49 797.5,677C 793.182,673.398 793.516,670.565 798.5,668.5C 808.082,675.303 818.748,678.136 830.5,677C 846.005,674.48 851.838,665.647 848,650.5C 846.5,648.333 844.667,646.5 842.5,645C 831.256,640.474 819.923,636.14 808.5,632C 797.91,625.292 794.41,615.792 798,603.5C 802.267,594.131 809.434,588.797 819.5,587.5 Z"/></g>
<g><path style="opacity:0.906" fill="#7f06f6" d="M 678.5,588.5 C 680.467,588.261 682.301,588.594 684,589.5C 684.5,618.498 684.667,647.498 684.5,676.5C 700.503,676.333 716.503,676.5 732.5,677C 734.14,679.776 733.473,681.776 730.5,683C 713.123,683.819 695.789,683.652 678.5,682.5C 677.175,651.1 677.175,619.767 678.5,588.5 Z"/></g>
<g><path style="opacity:0.868" fill="#7f06f6" d="M 760.5,588.5 C 762.792,588.244 764.959,588.577 767,589.5C 767.667,620.167 767.667,650.833 767,681.5C 764.833,683.464 762.499,683.798 760,682.5C 759.175,651.095 759.342,619.762 760.5,588.5 Z"/></g>
<g><path style="opacity:0.887" fill="#770ce3" d="M 877.5,588.5 C 901.563,587.849 925.396,588.516 949,590.5C 949.595,591.899 949.428,593.232 948.5,594.5C 937.606,595.177 926.772,595.844 916,596.5C 915.667,625.167 915.333,653.833 915,682.5C 912.358,684.059 910.025,683.725 908,681.5C 908.201,652.812 908.034,624.145 907.5,595.5C 897.847,596.412 888.18,596.579 878.5,596C 876.168,593.816 875.835,591.316 877.5,588.5 Z"/></g>
<g><path style="opacity:0.651" fill="#632aa7" d="M 590.5,586.5 C 588.761,589.243 586.427,591.243 583.5,592.5C 585.239,589.757 587.573,587.757 590.5,586.5 Z"/></g>
<g><path style="opacity:0.784" fill="#6924b4" d="M 580.5,595.5 C 577.769,599.234 574.436,602.234 570.5,604.5C 573.231,600.766 576.564,597.766 580.5,595.5 Z"/></g>
<g><path style="opacity:0.761" fill="#6824b0" d="M 565.5,609.5 C 563.1,612.903 560.1,615.57 556.5,617.5C 558.9,614.097 561.9,611.43 565.5,609.5 Z"/></g>
<g><path style="opacity:0.745" fill="#6922b5" d="M 545.5,628.5 C 540.11,634.892 534.11,640.559 527.5,645.5C 532.89,639.108 538.89,633.441 545.5,628.5 Z"/></g>
<g><path style="opacity:0.259" fill="#602b9c" d="M 497.5,641.5 C 502.894,645.892 507.561,650.892 511.5,656.5C 506.106,652.108 501.439,647.108 497.5,641.5 Z"/></g>
</svg>
